<?xml version="1.0" encoding="utf-8"?>
<!-- Generator: Adobe Illustrator 16.0.0, SVG Export Plug-In . SVG Version: 6.00 Build 0)  -->
<!DOCTYPE svg PUBLIC "-//W3C//DTD SVG 1.1//EN" "http://www.w3.org/Graphics/SVG/1.1/DTD/svg11.dtd">
<svg version="1.1" id="Capa_1" xmlns="http://www.w3.org/2000/svg" xmlns:xlink="http://www.w3.org/1999/xlink" x="0px" y="0px"
	 width="512px" height="512px" viewBox="0 0 512 512" enable-background="new 0 0 512 512" xml:space="preserve">
<g>
	<path fill="#B3B3B3" d="M255.999,0C114.842,0,0,114.842,0,256c0,141.146,114.842,255.998,255.999,255.998
		c141.148,0,256-114.852,256-255.998C511.999,114.842,397.167,0,255.999,0z M193.908,373.446h-58.964V196.061h58.964V373.446z
		 M164.431,171.859h-0.395c-19.777,0-32.595-13.638-32.595-30.664c0-17.406,13.199-30.642,33.379-30.642
		s32.585,13.235,32.973,30.642C197.793,158.224,185,171.859,164.431,171.859z M406.558,373.446h-58.965v-94.901
		c0-23.84-8.53-40.11-29.873-40.11c-16.294,0-25.99,10.965-30.257,21.572c-1.555,3.792-1.955,9.069-1.955,14.377v99.062h-58.986
		c0,0,0.793-160.731,0-177.385h58.979v25.144c7.838-12.069,21.832-29.311,53.156-29.311c38.809-0.001,67.9,25.352,67.9,79.839
		V373.446z"/>
	<path fill="#B3B3B3" d="M285.501,221.778v-0.573c-0.119,0.188-0.274,0.391-0.386,0.573H285.501z"/>
</g>
</svg>
